<?xml version="1.0" standalone="no"?>
<!DOCTYPE svg PUBLIC "-//W3C//DTD SVG 1.1//EN" "http://www.w3.org/Graphics/SVG/1.1/DTD/svg11.dtd">
<svg xmlns="http://www.w3.org/2000/svg" version="1.2" viewBox="0 0 2304 1856" width="2304" height="1856">
	<style>
		.s0 { fill: #f9faf6 } 
	</style>
	<path id="Path 2" class="s0" d="m1674.2 141.02c-0.44 1.11-0.97 6.34-1.17 11.63l-0.36 9.62c16.26 3.47 27.15 6.3 34.7 8.51 7.54 2.21 16.26 5.19 19.36 6.62 3.11 1.43 9.28 5.11 13.72 8.18 4.44 3.07 10.01 7.46 12.37 9.76 2.36 2.3 6.75 7.81 9.75 12.25 2.99 4.44 7.33 12.06 9.64 16.95 2.32 4.88 5.42 12.5 6.91 16.94 1.48 4.44 4.1 15.33 5.82 24.21 1.71 8.88 3.94 23.04 4.95 31.47 1.24 10.45 2.01 84.11 2.42 231.19 0.47 171.9 0.18 215.86-1.42 215.9-1.11 0.03-133.47 0.21-294.13 0.41l-292.11 0.35c-15.01 5.32-26.63 9.92-35.51 13.67-8.88 3.74-21.22 9.35-27.43 12.47-6.22 3.11-20.38 11.07-31.48 17.68-11.09 6.62-25.62 16.4-32.27 21.74-6.66 5.33-17.55 14.53-24.21 20.44-6.66 5.9-18.28 16.94-25.82 24.53-7.55 7.58-19.95 21.76-27.57 31.51-7.61 9.75-17.48 23.18-21.93 29.84-4.44 6.65-10.98 17.55-14.52 24.2-3.55 6.66-9.92 20.46-14.17 30.67-4.25 10.21-8.47 20.01-9.4 21.79-0.92 1.77-3.41 8.31-5.53 14.52-2.12 6.21-6.31 20.74-9.31 32.28-2.99 11.54-6.65 28.6-8.11 37.92-1.6 10.15-3.23 35.09-4.06 62.14-0.77 24.85-1.44 114.91-1.51 200.12l-0.11 154.93c31.91-1.93 47.71-3.21 55.7-4.1 7.99-0.89 21.06-3.04 29.05-4.78 7.99-1.74 18.88-4.52 24.2-6.17 5.33-1.66 18.4-6.47 29.05-10.69 10.66-4.23 26.63-11.22 35.51-15.53 8.88-4.32 23.76-12.44 33.08-18.06 9.32-5.62 24.21-16.12 33.09-23.33 8.87-7.22 21.76-18.81 28.62-25.75l12.49-12.63 0.85-480.93 597.94-0.81c1.37 5.63 1.5 153.24 1.17 331.65-0.45 236.95-1.13 328.96-2.53 341.33-1.06 9.32-3.55 24.77-5.53 34.33-1.98 9.55-4.15 17.36-4.81 17.34-0.67-0.01-1.57 2.7-2.02 6.03-0.55 4.14-4.12 10.51-11.29 20.17-5.77 7.77-13.95 16.69-18.16 19.83-4.22 3.13-14.93 9.2-23.81 13.48-9.24 4.45-22.69 9.32-31.47 11.4-8.43 2-16.27 4.47-17.42 5.49-1.3 1.16-2.06 5.63-2.02 11.94 0.07 9.12 0.42 10.16 3.71 10.87 1.99 0.43 114.93 0.79 250.95 0.81l247.33 0.02-0.81-24.99c-17.51-3.21-28.76-6.68-36.31-9.79-7.54-3.1-17.64-7.98-22.43-10.85-4.8-2.86-14.63-11.02-21.84-18.12-7.52-7.4-14.56-16.01-16.49-20.17-1.85-4-4.49-9.81-5.87-12.91-1.38-3.11-4.35-12.19-6.61-20.18-2.27-7.99-4.9-20.7-5.86-28.24-0.95-7.55-2.44-31.87-3.29-54.07-0.95-24.56-1.37-269.21-1.08-625.37l0.49-585.03c5.34-33.77 8.44-49.75 10.35-57.29 1.9-7.55 6.22-19.53 9.58-26.63 3.87-8.16 9.62-16.71 15.62-23.22 5.23-5.67 13.14-12.61 17.57-15.41 4.44-2.8 10.98-6.59 14.53-8.41 3.55-1.82 13.72-5.18 22.59-7.46 8.88-2.29 19.23-4.58 23-5.09l6.86-0.93v-24.21c-448.84 0-500.55 0.42-501.19 2.02zm-880.38 1.1c-1 1.72-1.73 6.26-1.64 10.09 0.1 3.83 0.7 7.85 1.36 8.93 0.65 1.08 4.45 2.67 8.44 3.54 4 0.87 11.62 2.65 16.95 3.95 5.33 1.29 11.86 3.07 14.53 3.95 2.66 0.88 7.74 2.85 11.29 4.38 3.55 1.53 9.73 4.97 13.72 7.64 3.99 2.68 11.44 9.12 16.54 14.33 5.34 5.45 11.58 14.09 14.7 20.36 2.99 5.99 7.3 16.7 9.59 23.8 2.29 7.11 4.54 15.46 5.01 18.56 0.47 3.11 2.07 12.19 3.55 20.18 2.45 13.13 2.77 39.55 3.29 274.76 0.38 172.03 1.13 260.24 2.19 260.24 0.89 0 3.94-3.09 6.79-6.86 2.84-3.77 10.24-12.67 16.44-19.77 6.19-7.1 15.67-17.52 21.05-23.15 5.38-5.63 17.05-16.57 25.93-24.32 8.87-7.75 22.31-18.79 29.85-24.53 7.55-5.75 18.44-13.64 24.21-17.54 5.77-3.89 17.03-10.78 25.02-15.3 7.98-4.53 20.69-11.24 28.24-14.92 7.54-3.68 17.35-8.27 21.79-10.2 4.43-1.92 15.69-6.25 25.01-9.61 9.32-3.37 24.21-7.98 33.08-10.26 8.88-2.28 17.42-4.36 18.98-4.62 2.68-0.46 2.86-9.42 3.34-162.68l0.49-162.19c6.6-42.53 10.45-60.68 12.83-67.79 2.37-7.1 6.5-17.26 9.16-22.59 2.67-5.33 7.84-13.24 11.5-17.6 3.65-4.35 10.64-11 15.52-14.77 4.88-3.78 13.6-9.11 19.37-11.86 5.84-2.77 19.61-6.96 31.06-9.43l20.57-4.44 0.01-23.4c-513.33 0-517.99 0.06-519.76 3.12zm-661.51-2.05c-1.77 0.61-2.26 3.36-2.02 11.17 0.29 9.4 0.7 10.5 4.36 11.97 2.22 0.89 6.76 1.59 10.09 1.57 3.32-0.03 6.67 0.52 7.43 1.21 0.76 0.69 6.2 2.45 12.1 3.91 5.9 1.46 14.72 4.46 19.6 6.68 4.88 2.21 13.6 7.77 19.37 12.36 5.77 4.59 12.95 11.38 15.96 15.11 3 3.72 7.54 11.31 10.08 16.85 2.54 5.55 5.62 13.18 6.84 16.95 1.22 3.77 3.02 10.13 4 14.12 0.97 4 2.83 13.44 4.13 20.98 1.31 7.55 3.32 20.98 4.48 29.86 1.71 13.05 2.12 131.64 2.12 620.53 0 575.45-0.15 605.83-2.98 634.25-1.94 19.49-4.65 36.31-7.8 48.42-2.65 10.21-6.51 22.19-8.58 26.63-2.07 4.44-7.63 12.37-12.37 17.63-4.74 5.26-14.43 13.27-21.53 17.79-7.1 4.52-18.36 10.55-25.02 13.4-6.65 2.84-18.64 6.3-26.62 7.69-7.99 1.38-15.06 3.4-15.71 4.47-0.66 1.08-1.2 6.86-1.22 12.85l-0.02 10.9c1169.16 0 1239.55-0.28 1240.26-2.42 0.45-1.33 0.81-7.33 0.82-13.32 0-5.99 1.47-25.78 3.27-43.98 1.79-18.19 3.57-34.17 3.95-35.5 0.38-1.33 1.46-11.14 2.4-21.79 0.95-10.65 4.25-39.7 7.33-64.55 3.08-24.86 7.04-58.99 8.78-75.86 1.75-16.86 4.32-40.46 5.7-52.45 1.39-11.98 3.96-31.59 5.71-43.57 1.75-11.98 3.18-23.78 3.19-26.23l0.01-4.43-39.54 0.16c-23.77 47.96-36.76 71.35-44.21 82.91-7.44 11.56-17.92 26.83-23.27 33.93-5.36 7.1-18.15 21.5-28.42 32-10.74 10.96-27.62 25.79-39.67 34.85-11.54 8.68-26.06 18.89-32.28 22.7-6.21 3.81-18.56 10.77-27.43 15.47-8.88 4.69-27.04 13.21-40.35 18.92-13.31 5.7-34.38 13.45-46.8 17.2-12.43 3.76-32.76 9.25-45.19 12.2-12.43 2.96-29.49 6.52-37.93 7.91-8.43 1.39-23.32 3.37-33.08 4.4-12.22 1.29-86.2 2.09-237.24 2.54l-219.49 0.66c-2.07-165.88-2.39-462.41-2.06-765.98 0.56-503.74 0.85-553.43 3.29-568.89 1.46-9.32 3.14-20.22 3.72-24.21 0.58-3.99 3.64-14.16 6.8-22.59 3.15-8.44 6.58-16.42 7.62-17.76 1.03-1.33 3.72-5.69 5.98-9.68 2.26-3.99 8.38-11.28 13.59-16.19 5.41-5.09 14.68-11.48 21.58-14.89 6.66-3.28 18.64-7.83 26.63-10.11 7.99-2.28 17.65-4.66 21.47-5.28l6.95-1.14-0.98-22.59c-383.98-0.44-496.51-0.19-497.8 0.26z"/>
</svg>